<svg class="qr" xmlns="http://www.w3.org/2000/svg" viewBox="0 0 41 41" shape-rendering="crispEdges" role="img" aria-label="https://kristofferc.github.io/HyperHessians.jl/slides/"><rect width="41" height="41" fill="#fff"/><path fill="#000" d="M4 4h7v1h-7zM12 4h1v1h-1zM18 4h2v1h-2zM22 4h1v1h-1zM25 4h1v1h-1zM27 4h1v1h-1zM30 4h7v1h-7zM4 5h1v1h-1zM10 5h1v1h-1zM13 5h2v1h-2zM16 5h1v1h-1zM20 5h4v1h-4zM25 5h1v1h-1zM28 5h1v1h-1zM30 5h1v1h-1zM36 5h1v1h-1zM4 6h1v1h-1zM6 6h3v1h-3zM10 6h1v1h-1zM14 6h2v1h-2zM17 6h1v1h-1zM21 6h8v1h-8zM30 6h1v1h-1zM32 6h3v1h-3zM36 6h1v1h-1zM4 7h1v1h-1zM6 7h3v1h-3zM10 7h1v1h-1zM12 7h2v1h-2zM16 7h1v1h-1zM18 7h1v1h-1zM24 7h1v1h-1zM27 7h1v1h-1zM30 7h1v1h-1zM32 7h3v1h-3zM36 7h1v1h-1zM4 8h1v1h-1zM6 8h3v1h-3zM10 8h1v1h-1zM12 8h2v1h-2zM15 8h1v1h-1zM18 8h1v1h-1zM21 8h2v1h-2zM25 8h1v1h-1zM27 8h1v1h-1zM30 8h1v1h-1zM32 8h3v1h-3zM36 8h1v1h-1zM4 9h1v1h-1zM10 9h1v1h-1zM12 9h1v1h-1zM14 9h1v1h-1zM16 9h1v1h-1zM20 9h1v1h-1zM22 9h2v1h-2zM25 9h2v1h-2zM28 9h1v1h-1zM30 9h1v1h-1zM36 9h1v1h-1zM4 10h7v1h-7zM12 10h1v1h-1zM14 10h1v1h-1zM16 10h1v1h-1zM18 10h1v1h-1zM20 10h1v1h-1zM22 10h1v1h-1zM24 10h1v1h-1zM26 10h1v1h-1zM28 10h1v1h-1zM30 10h7v1h-7zM12 11h1v1h-1zM18 11h5v1h-5zM24 11h2v1h-2zM28 11h1v1h-1zM4 12h1v1h-1zM8 12h1v1h-1zM10 12h4v1h-4zM15 12h1v1h-1zM17 12h1v1h-1zM21 12h1v1h-1zM23 12h5v1h-5zM29 12h5v1h-5zM36 12h1v1h-1zM4 13h2v1h-2zM8 13h1v1h-1zM13 13h3v1h-3zM17 13h5v1h-5zM25 13h1v1h-1zM27 13h1v1h-1zM29 13h1v1h-1zM33 13h3v1h-3zM4 14h2v1h-2zM7 14h1v1h-1zM9 14h2v1h-2zM12 14h3v1h-3zM16 14h1v1h-1zM19 14h1v1h-1zM22 14h1v1h-1zM25 14h1v1h-1zM27 14h2v1h-2zM33 14h1v1h-1zM35 14h1v1h-1zM4 15h1v1h-1zM9 15h1v1h-1zM11 15h2v1h-2zM14 15h1v1h-1zM16 15h1v1h-1zM18 15h9v1h-9zM29 15h2v1h-2zM5 16h1v1h-1zM10 16h10v1h-10zM22 16h1v1h-1zM24 16h2v1h-2zM28 16h1v1h-1zM30 16h4v1h-4zM35 16h2v1h-2zM4 17h6v1h-6zM12 17h1v1h-1zM14 17h1v1h-1zM17 17h1v1h-1zM20 17h1v1h-1zM22 17h1v1h-1zM27 17h3v1h-3zM31 17h1v1h-1zM33 17h2v1h-2zM4 18h1v1h-1zM6 18h2v1h-2zM9 18h5v1h-5zM15 18h4v1h-4zM20 18h3v1h-3zM27 18h4v1h-4zM35 18h1v1h-1zM6 19h1v1h-1zM9 19h1v1h-1zM12 19h1v1h-1zM14 19h1v1h-1zM18 19h1v1h-1zM21 19h1v1h-1zM24 19h3v1h-3zM29 19h4v1h-4zM4 20h1v1h-1zM6 20h1v1h-1zM8 20h1v1h-1zM10 20h2v1h-2zM13 20h2v1h-2zM17 20h1v1h-1zM19 20h1v1h-1zM21 20h1v1h-1zM23 20h4v1h-4zM30 20h1v1h-1zM32 20h2v1h-2zM35 20h1v1h-1zM5 21h1v1h-1zM8 21h1v1h-1zM11 21h1v1h-1zM13 21h4v1h-4zM19 21h4v1h-4zM24 21h2v1h-2zM27 21h1v1h-1zM29 21h1v1h-1zM33 21h2v1h-2zM4 22h5v1h-5zM10 22h3v1h-3zM15 22h1v1h-1zM18 22h3v1h-3zM22 22h1v1h-1zM24 22h1v1h-1zM27 22h2v1h-2zM30 22h2v1h-2zM33 22h1v1h-1zM35 22h1v1h-1zM4 23h3v1h-3zM8 23h1v1h-1zM11 23h2v1h-2zM14 23h2v1h-2zM23 23h1v1h-1zM25 23h1v1h-1zM27 23h1v1h-1zM29 23h1v1h-1zM31 23h1v1h-1zM35 23h1v1h-1zM5 24h1v1h-1zM7 24h1v1h-1zM10 24h1v1h-1zM12 24h3v1h-3zM16 24h1v1h-1zM19 24h2v1h-2zM23 24h5v1h-5zM30 24h4v1h-4zM35 24h1v1h-1zM4 25h1v1h-1zM7 25h1v1h-1zM11 25h1v1h-1zM13 25h2v1h-2zM16 25h2v1h-2zM21 25h2v1h-2zM26 25h2v1h-2zM29 25h1v1h-1zM31 25h1v1h-1zM34 25h2v1h-2zM6 26h8v1h-8zM15 26h1v1h-1zM18 26h2v1h-2zM21 26h1v1h-1zM24 26h1v1h-1zM27 26h1v1h-1zM30 26h1v1h-1zM32 26h4v1h-4zM12 27h1v1h-1zM16 27h2v1h-2zM19 27h3v1h-3zM25 27h2v1h-2zM28 27h3v1h-3zM32 27h1v1h-1zM36 27h1v1h-1zM4 28h3v1h-3zM8 28h3v1h-3zM12 28h1v1h-1zM14 28h1v1h-1zM16 28h1v1h-1zM21 28h1v1h-1zM24 28h9v1h-9zM34 28h1v1h-1zM36 28h1v1h-1zM12 29h1v1h-1zM17 29h3v1h-3zM28 29h1v1h-1zM32 29h1v1h-1zM34 29h1v1h-1zM4 30h7v1h-7zM12 30h5v1h-5zM19 30h3v1h-3zM26 30h1v1h-1zM28 30h1v1h-1zM30 30h1v1h-1zM32 30h2v1h-2zM35 30h1v1h-1zM4 31h1v1h-1zM10 31h1v1h-1zM13 31h3v1h-3zM17 31h1v1h-1zM20 31h4v1h-4zM25 31h1v1h-1zM28 31h1v1h-1zM32 31h1v1h-1zM4 32h1v1h-1zM6 32h3v1h-3zM10 32h1v1h-1zM12 32h1v1h-1zM17 32h2v1h-2zM22 32h5v1h-5zM28 32h6v1h-6zM35 32h1v1h-1zM4 33h1v1h-1zM6 33h3v1h-3zM10 33h1v1h-1zM13 33h1v1h-1zM18 33h1v1h-1zM20 33h1v1h-1zM30 33h3v1h-3zM4 34h1v1h-1zM6 34h3v1h-3zM10 34h1v1h-1zM13 34h1v1h-1zM16 34h1v1h-1zM18 34h1v1h-1zM20 34h3v1h-3zM25 34h1v1h-1zM27 34h1v1h-1zM29 34h5v1h-5zM4 35h1v1h-1zM10 35h1v1h-1zM15 35h2v1h-2zM21 35h2v1h-2zM24 35h2v1h-2zM27 35h2v1h-2zM4 36h7v1h-7zM12 36h2v1h-2zM16 36h4v1h-4zM21 36h1v1h-1zM25 36h4v1h-4zM30 36h1v1h-1zM36 36h1v1h-1z"/></svg>
